<svg width="1007" height="120" viewBox="0 0 1007 120" fill="none" xmlns="http://www.w3.org/2000/svg">
<rect width="8.70124" height="120" fill="#F8F8F8"/>
<rect x="14.502" width="8.70124" height="120" fill="#F8F8F8"/>
<rect x="29.0039" width="5.80083" height="120" fill="#F8F8F8"/>
<rect x="40.6055" width="11.6017" height="120" fill="#F8F8F8"/>
<rect x="58.0085" width="5.80083" height="120" fill="#F8F8F8"/>
<rect x="69.6101" width="5.80083" height="120" fill="#F8F8F8"/>
<rect x="81.2117" width="8.70124" height="120" fill="#F8F8F8"/>
<rect x="95.7136" width="2.90041" height="120" fill="#F8F8F8"/>
<rect x="104.415" width="8.70124" height="120" fill="#F8F8F8"/>
<rect x="581.117" width="9.06794" height="120" fill="#F8F8F8"/>
<rect x="596.229" width="9.06794" height="120" fill="#F8F8F8"/>
<rect x="611.344" width="6.04529" height="120" fill="#F8F8F8"/>
<rect x="623.434" width="12.0906" height="120" fill="#F8F8F8"/>
<rect x="641.57" width="6.04529" height="120" fill="#F8F8F8"/>
<rect x="653.66" width="6.04529" height="120" fill="#F8F8F8"/>
<rect x="665.751" width="9.06794" height="120" fill="#F8F8F8"/>
<rect x="680.864" width="3.02265" height="120" fill="#F8F8F8"/>
<rect x="689.932" width="9.06794" height="120" fill="#F8F8F8"/>
<rect x="462" width="8.70124" height="120" fill="#F8F8F8"/>
<rect x="476.502" width="8.70124" height="120" fill="#F8F8F8"/>
<rect x="491.004" width="8.70124" height="120" fill="#F8F8F8"/>
<rect x="505.506" width="20.3029" height="120" fill="#F8F8F8"/>
<rect x="531.61" width="5.80083" height="120" fill="#F8F8F8"/>
<rect x="543.212" width="8.70124" height="120" fill="#F8F8F8"/>
<rect x="557.714" width="2.90041" height="120" fill="#F8F8F8"/>
<rect x="566.415" width="8.70124" height="120" fill="#F8F8F8"/>
<rect x="706" width="330" height="120" fill="#F8F8F8"/>
<rect x="123" width="330" height="120" fill="#F8F8F8"/>
</svg>
